<svg width="100" height="100" viewBox="0 0 100 100" fill="none" xmlns="http://www.w3.org/2000/svg">
  <rect width="100" height="100" rx="50" fill="url(#grad1)"/>
  
  <!-- Blockchain network visualization -->
  <g>
    <!-- Connection lines -->
    <path d="M40 30L60 50M60 50L40 70M60 50L80 30M60 50L80 70M20 50L40 30M20 50L40 70" stroke="rgba(255, 255, 255, 0.5)" stroke-width="2" stroke-linecap="round"/>
    
    <!-- Nodes -->
    <circle cx="40" cy="30" r="8" fill="#2FD18C" />
    <circle cx="60" cy="50" r="12" fill="#9665FF" />
    <circle cx="40" cy="70" r="8" fill="#2FD18C" />
    <circle cx="80" cy="30" r="8" fill="#2FD18C" />
    <circle cx="80" cy="70" r="8" fill="#2FD18C" />
    <circle cx="20" cy="50" r="8" fill="#2FD18C" />
    
    <!-- Inner circles for nodes -->
    <circle cx="40" cy="30" r="4" fill="#1C2033" />
    <circle cx="60" cy="50" r="6" fill="#1C2033" />
    <circle cx="40" cy="70" r="4" fill="#1C2033" />
    <circle cx="80" cy="30" r="4" fill="#1C2033" />
    <circle cx="80" cy="70" r="4" fill="#1C2033" />
    <circle cx="20" cy="50" r="4" fill="#1C2033" />
    
    <!-- Pulse effects -->
    <circle cx="60" cy="50" r="22" stroke="#9665FF" stroke-width="2" opacity="0.2">
      <animate attributeName="r" values="12;22;12" dur="2s" repeatCount="indefinite" />
      <animate attributeName="opacity" values="0.6;0;0.6" dur="2s" repeatCount="indefinite" />
    </circle>
  </g>
  
  <!-- Leaf symbol -->
  <path d="M60 50C60 40 55 30 40 30C40 45 45 50 60 50Z" fill="#2FD18C" />
  
  <!-- Gradient definition -->
  <defs>
    <linearGradient id="grad1" x1="0" y1="0" x2="100" y2="100" gradientUnits="userSpaceOnUse">
      <stop offset="0%" stop-color="#1C2033" />
      <stop offset="100%" stop-color="#343A56" />
    </linearGradient>
  </defs>
</svg> 